<?xml version="1.0" encoding="utf-8"?>
<!-- Svg Vector Icons : http://www.onlinewebfonts.com/icon -->
<!DOCTYPE svg PUBLIC "-//W3C//DTD SVG 1.1//EN" "http://www.w3.org/Graphics/SVG/1.1/DTD/svg11.dtd">
<svg version="1.1" xmlns="http://www.w3.org/2000/svg" xmlns:xlink="http://www.w3.org/1999/xlink" x="0px" y="0px" viewBox="0 0 1000 1000" enable-background="new 0 0 1000 1000" xml:space="preserve">
<metadata> Svg Vector Icons : http://www.onlinewebfonts.com/icon </metadata>
<g><g transform="translate(0.000000,511.000000) scale(0.100000,-0.100000)"><path d="M4480.2,4769.5c-494.4-449.4-1414.7-1397.1-1414.7-1455.7c0-7.8,142.6-205.2,316.6-437.7c312.6-418.2,314.6-420.1,338-365.4c484.6,1139.2,1047.4,2491.4,1041.5,2499.2C4755.7,5013.8,4630.7,4906.3,4480.2,4769.5z"/><path d="M5238.4,4988.4c7.8-29.3,775.7-1856.3,1041.5-2477.7c23.4-54.7,23.4-52.8,340,369.3c287.2,383,316.5,427.9,295.1,465.1c-43,84-721.1,789.4-1104,1150.9C5332.2,4947.4,5222.7,5041.2,5238.4,4988.4z"/><path d="M4605.3,3536.6c-211-502.2-381-914.5-377.1-918.4c2-3.9,166.1,99.6,361.5,228.6c246.2,166.1,371.3,236.4,410.3,236.4c39.1,0,164.1-70.4,410.3-236.4c195.4-129,359.5-232.5,361.5-228.6c9.8,7.8-760.1,1832.9-771.8,1832.9C4994.1,4451,4818.3,4040.7,4605.3,3536.6z"/><path d="M2686.4,2864.4c-50.8-66.4-86-132.9-82.1-150.5c5.9-17.6,121.2-646.8,256-1399.1C2997.1,562.6,3112.4-66.6,3118.3-82.3c13.7-33.2,23.4,19.5,246.2,1205.6l162.2,863.7l-373.2,498.3l-375.2,498.3L2686.4,2864.4z"/><path d="M6848.5,2491.2c-203.2-269.7-369.3-502.2-369.3-513.9c0-50.8,386.9-2098.6,396.7-2098.6c5.9,0,132.9,637,281.4,1418.6l269.6,1416.7l-93.8,121.1c-50.8,66.4-97.7,127-103.6,134.8C7221.7,2977.7,7051.7,2762.8,6848.5,2491.2z"/><path d="M4462.6,2262.5L3937,1912.8L3638,316.3l-299-1594.5l353.7-969.2c195.4-535.4,367.4-1008.3,383-1053.2l29.3-84H5000h893l383,1055.2l385,1053.2L6365.9,292.9c-160.2,863.7-297,1582.8-302.9,1598.4c-7.8,25.4-1035.6,723-1063,723C4994.1,2614.3,4753.8,2456,4462.6,2262.5z"/><path d="M2131.5,2043.7c-519.8-889.1-797.2-1793.8-853.9-2770.8c-5.9-113.3-15.6-238.4-19.5-277.5l-9.8-74.2h812.9H2876l-11.7,54.7c-5.9,29.3-140.7,769.9-299,1645.3c-158.3,875.4-293.1,1600.3-300.9,1608.2C2256.6,2239.1,2197.9,2155.1,2131.5,2043.7z"/><path d="M7745.4,2160.9c-5.9-25.4-142.6-744.5-304.8-1598.4c-162.2-853.9-299-1573-304.8-1596.4l-9.8-44.9h812.9h812.9l-9.8,74.2c-3.9,39.1-13.7,164.1-19.5,277.5c-35.2,617.5-189.6,1313.1-422.1,1899.3c-119.2,300.9-498.3,1031.7-535.4,1031.7C7759.1,2203.9,7751.2,2184.4,7745.4,2160.9z"/><path d="M1256.1-1696.3c25.4-379.1,115.3-717.1,277.5-1063c93.8-195.4,289.2-500.2,414.2-642.9l76.2-87.9l384.9,967.3c213,531.5,390.8,977,396.7,990.7c7.8,17.6-154.4,23.4-775.7,23.4h-787.5L1256.1-1696.3z"/><path d="M7194.4-1532.2c5.9-13.7,183.7-459.2,396.7-990.7l384.9-967.3l76.2,87.9c125.1,142.7,320.4,447.5,414.3,642.9c162.2,345.9,252.1,683.9,277.5,1063l13.7,187.6h-787.5C7348.7-1508.7,7186.5-1514.6,7194.4-1532.2z"/><path d="M3089-1938.6c-9.8-27.3-162.2-404.5-336.1-840.2c-175.9-435.7-322.4-805.1-326.3-822.6c-7.8-27.4,82.1-15.6,609.7,72.3c342,56.7,623.3,107.5,627.2,111.4c7.8,7.8-508,1444-539.3,1498.7C3110.5-1895.6,3104.6-1899.5,3089-1938.6z"/><path d="M6866.1-1932.7c-78.1-203.2-535.4-1479.2-531.5-1485c7.8-5.9,1233-199.3,1238.8-193.4c3.9,3.9-674.1,1696.1-683.9,1705.8C6883.7-1901.5,6873.9-1913.2,6866.1-1932.7z"/><path d="M4732.3-4062.6l267.7-269.6l267.7,269.6l269.6,267.7H5000h-537.4L4732.3-4062.6z"/><path d="M3221.8-3916.1c-316.6-54.7-580.3-101.6-584.2-105.5c-23.5-21.5,447.5-306.8,685.9-416.2c349.8-160.2,826.5-310.7,1106-345.8c103.6-13.7,105.5-11.7,191.5,72.3l86,84l-404.5,406.4c-322.4,322.4-416.2,406.4-455.3,404.5C3819.8-3818.4,3538.4-3863.3,3221.8-3916.1z"/><path d="M5697.6-4220.9l-404.5-406.4l86-84c86-84,87.9-86,189.6-72.3c326.3,43,867.6,222.7,1234.9,410.3c244.3,123.1,588.2,343.9,566.7,363.4c-13.7,11.7-1192,197.3-1246.7,195.4C6111.8-3814.5,5920.4-3996.2,5697.6-4220.9z"/></g></g>
</svg>